<!-- Original artwork for Butterfly Next. GPL-3.0, same as the theme. -->
<svg xmlns="http://www.w3.org/2000/svg" viewBox="0 0 1600 900">
  <defs>
    <linearGradient id="sky" x2="1" y2="1"><stop stop-color="#0b3954"/><stop offset=".55" stop-color="#167da4"/><stop offset="1" stop-color="#49b1f5"/></linearGradient>
    <linearGradient id="wing" x2="1" y2="1"><stop stop-color="#e0fbff" stop-opacity=".23"/><stop offset="1" stop-color="#fff" stop-opacity=".04"/></linearGradient>
  </defs>
  <path fill="url(#sky)" d="M0 0h1600v900H0z"/>
  <g fill="url(#wing)" transform="translate(800 490)">
    <path d="M0 0C-55-215-245-360-480-270c-130 50-65 255 20 310C-320 130-95 100 0 0Z"/>
    <path d="M0 0C55-215 245-360 480-270c130 50 65 255-20 310C320 130 95 100 0 0Z"/>
    <path d="M0 5c-140 25-300 65-280 190s230 110 280-190Zm0 0c140 25 300 65 280 190S50 305 0 5Z"/>
  </g>
  <g fill="none" stroke="#d9f8ff" stroke-opacity=".07"><circle cx="800" cy="450" r="345"/><circle cx="800" cy="450" r="475"/><circle cx="800" cy="450" r="610"/></g>
</svg>
